<svg width="18" height="18" viewBox="0 0 18 18" fill="none" xmlns="http://www.w3.org/2000/svg">
<path d="M0.6 0C0.44087 0 0.288258 0.0632141 0.175736 0.175736C0.0632141 0.288258 0 0.44087 0 0.6C0 0.75913 0.0632141 0.911742 0.175736 1.02426C0.288258 1.13679 0.44087 1.2 0.6 1.2H1.932L2.4132 3.1284L4.2108 12.7104C4.23654 12.8479 4.30951 12.9721 4.41709 13.0615C4.52468 13.1509 4.66012 13.1999 4.8 13.2H6C5.36348 13.2 4.75303 13.4529 4.30294 13.9029C3.85286 14.353 3.6 14.9635 3.6 15.6C3.6 16.2365 3.85286 16.847 4.30294 17.2971C4.75303 17.7471 5.36348 18 6 18C6.63652 18 7.24697 17.7471 7.69706 17.2971C8.14714 16.847 8.4 16.2365 8.4 15.6C8.4 14.9635 8.14714 14.353 7.69706 13.9029C7.24697 13.4529 6.63652 13.2 6 13.2H14.4C13.7635 13.2 13.153 13.4529 12.7029 13.9029C12.2529 14.353 12 14.9635 12 15.6C12 16.2365 12.2529 16.847 12.7029 17.2971C13.153 17.7471 13.7635 18 14.4 18C15.0365 18 15.647 17.7471 16.0971 17.2971C16.5471 16.847 16.8 16.2365 16.8 15.6C16.8 14.9635 16.5471 14.353 16.0971 13.9029C15.647 13.4529 15.0365 13.2 14.4 13.2H15.6C15.7399 13.1999 15.8753 13.1509 15.9829 13.0615C16.0905 12.9721 16.1635 12.8479 16.1892 12.7104L17.9892 3.1104C18.0054 3.0238 18.0024 2.9347 17.9802 2.84942C17.9581 2.76414 17.9175 2.68478 17.8613 2.61696C17.805 2.54915 17.7345 2.49456 17.6548 2.45706C17.5751 2.41956 17.4881 2.40008 17.4 2.4H3.468L2.982 0.4548C2.94961 0.324941 2.87473 0.209639 2.76928 0.12723C2.66382 0.0448208 2.53384 3.69738e-05 2.4 0H0.6ZM5.298 12L3.7224 3.6H16.6776L15.102 12H5.298ZM7.2 15.6C7.2 15.9183 7.07357 16.2235 6.84853 16.4485C6.62348 16.6736 6.31826 16.8 6 16.8C5.68174 16.8 5.37652 16.6736 5.15147 16.4485C4.92643 16.2235 4.8 15.9183 4.8 15.6C4.8 15.2817 4.92643 14.9765 5.15147 14.7515C5.37652 14.5264 5.68174 14.4 6 14.4C6.31826 14.4 6.62348 14.5264 6.84853 14.7515C7.07357 14.9765 7.2 15.2817 7.2 15.6ZM15.6 15.6C15.6 15.9183 15.4736 16.2235 15.2485 16.4485C15.0235 16.6736 14.7183 16.8 14.4 16.8C14.0817 16.8 13.7765 16.6736 13.5515 16.4485C13.3264 16.2235 13.2 15.9183 13.2 15.6C13.2 15.2817 13.3264 14.9765 13.5515 14.7515C13.7765 14.5264 14.0817 14.4 14.4 14.4C14.7183 14.4 15.0235 14.5264 15.2485 14.7515C15.4736 14.9765 15.6 15.2817 15.6 15.6Z" fill="#545454"/>
</svg>
